<svg width="62" height="50" viewBox="0 0 62 50" fill="none" xmlns="http://www.w3.org/2000/svg">
<path d="M15.5003 0C17.1447 0 18.7216 0.65848 19.8844 1.83058C21.0471 3.00269 21.7003 4.5924 21.7003 6.25C21.7003 7.9076 21.0471 9.49732 19.8844 10.6694C18.7216 11.8415 17.1447 12.5 15.5003 12.5C13.856 12.5 12.279 11.8415 11.1163 10.6694C9.95352 9.49732 9.30031 7.9076 9.30031 6.25C9.30031 4.5924 9.95352 3.00269 11.1163 1.83058C12.279 0.65848 13.856 0 15.5003 0ZM8.52531 46.875V39.0625H6.80094C5.745 39.0625 4.99906 38.0176 5.32844 37.002L8.34125 27.8809L5.57062 31.5723C4.53406 32.9492 2.58687 33.2129 1.23062 32.1777C-0.125626 31.1426 -0.396876 29.1797 0.63 27.8027L6.33594 20.2148C8.50594 17.3242 11.9062 15.625 15.5003 15.625C19.0944 15.625 22.4947 17.3242 24.6647 20.2148L30.3706 27.8027C31.4072 29.1797 31.1359 31.1426 29.77 32.1777C28.4041 33.2129 26.4569 32.9492 25.43 31.5723L22.6594 27.8809L25.6722 37.002C26.0113 38.0176 25.2556 39.0625 24.1997 39.0625H22.4753V46.875C22.4753 48.6035 21.09 50 19.3753 50C17.6606 50 16.2753 48.6035 16.2753 46.875V39.0625H14.7253V46.875C14.7253 48.6035 13.34 50 11.6253 50C9.91063 50 8.52531 48.6035 8.52531 46.875ZM46.5003 0C48.1447 0 49.7216 0.65848 50.8844 1.83058C52.0471 3.00269 52.7003 4.5924 52.7003 6.25C52.7003 7.9076 52.0471 9.49732 50.8844 10.6694C49.7216 11.8415 48.1447 12.5 46.5003 12.5C44.856 12.5 43.279 11.8415 42.1163 10.6694C40.9535 9.49732 40.3003 7.9076 40.3003 6.25C40.3003 4.5924 40.9535 3.00269 42.1163 1.83058C43.279 0.65848 44.856 0 46.5003 0ZM45.7253 37.5V46.875C45.7253 48.6035 44.34 50 42.6253 50C40.9106 50 39.5253 48.6035 39.5253 46.875V29.3457L38.2756 31.3477C37.365 32.8125 35.4469 33.2422 34.0034 32.3242C32.56 31.4063 32.1241 29.4727 33.0347 28.0176L38.0431 20C39.7481 17.2754 42.7222 15.6152 45.9094 15.6152H47.1009C50.2978 15.6152 53.2719 17.2656 54.9672 20L59.9756 28.0273C60.8862 29.4922 60.4503 31.416 59.0069 32.334C57.5634 33.252 55.6453 32.8125 54.7347 31.3574L53.4753 29.3457V46.875C53.4753 48.6035 52.09 50 50.3753 50C48.6606 50 47.2753 48.6035 47.2753 46.875V37.5H45.7253Z" fill="#D6E1D7"/>
</svg>
