<svg width="31" height="31" viewBox="0 0 31 31" fill="none" xmlns="http://www.w3.org/2000/svg">
<path d="M24.5417 28.4166C23.1208 28.4166 21.9045 27.9107 20.8927 26.8989C19.8809 25.8871 19.375 24.6708 19.375 23.25V17.4375C19.375 16.5333 19.6872 15.7691 20.3115 15.1448C20.9358 14.5205 21.7 14.2083 22.6042 14.2083C23.5083 14.2083 24.2726 14.5205 24.8969 15.1448C25.5212 15.7691 25.8333 16.5333 25.8333 17.4375V23.25H23.25V17.4375C23.25 17.2653 23.1854 17.1146 23.0563 16.9854C22.9271 16.8562 22.7764 16.7916 22.6042 16.7916C22.4319 16.7916 22.2812 16.8562 22.1521 16.9854C22.0229 17.1146 21.9583 17.2653 21.9583 17.4375V23.25C21.9583 23.9604 22.2115 24.5688 22.7178 25.0751C23.2242 25.5814 23.8321 25.8342 24.5417 25.8333C25.2521 25.8333 25.8605 25.5801 26.3668 25.0738C26.8731 24.5675 27.1259 23.9595 27.125 23.25V18.0833H29.7083V23.25C29.7083 24.6708 29.2024 25.8871 28.1906 26.8989C27.1788 27.9107 25.9625 28.4166 24.5417 28.4166ZM3.875 23.25C3.16458 23.25 2.55621 22.9968 2.04987 22.4905C1.54354 21.9841 1.29081 21.3762 1.29167 20.6666V5.16665C1.29167 4.45623 1.54483 3.84786 2.05117 3.34152C2.5575 2.83519 3.16544 2.58245 3.875 2.58332H24.5417C25.2521 2.58332 25.8605 2.83648 26.3668 3.34282C26.8731 3.84915 27.1259 4.45709 27.125 5.16665V12.9166H22.6042C21.3556 12.9166 20.2899 13.358 19.4073 14.2406C18.5247 15.1232 18.0833 16.1889 18.0833 17.4375V23.25H3.875ZM14.2083 14.2083L24.5417 7.74998V5.16665L14.2083 11.625L3.875 5.16665V7.74998L14.2083 14.2083Z" fill="#D66731"/>
</svg>
