<svg width="60" height="60" viewBox="0 0 60 60" fill="none" xmlns="http://www.w3.org/2000/svg">
<g clip-path="url(#clip0_25_68)">
<path fill-rule="evenodd" clip-rule="evenodd" d="M0 0H60V60H0V0ZM18.125 40C20.8875 40 23.125 37.7625 23.125 35C23.125 32.2375 20.8875 30 18.125 30C15.3625 30 13.125 32.2375 13.125 35C13.125 37.7625 15.3625 40 18.125 40ZM18.125 42.5C14.5788 42.5 7.5 44.2875 7.5 47.8337V52.5H28.75V47.8337C28.75 44.2862 21.6712 42.5 18.125 42.5ZM41.875 40C44.6375 40 46.875 37.7625 46.875 35C46.875 32.2375 44.6375 30 41.875 30C39.1125 30 36.875 32.2375 36.875 35C36.875 37.7625 39.1125 40 41.875 40ZM41.875 42.5C38.3288 42.5 31.25 44.2875 31.25 47.8337V52.5H52.5V47.8337C52.5 44.2862 45.4212 42.5 41.875 42.5ZM30 15.0525C30 14.0607 29.8046 13.0786 29.4251 12.1623C29.0456 11.246 28.4892 10.4134 27.7879 9.71208C27.0866 9.01076 26.254 8.45445 25.3377 8.0749C24.4214 7.69535 23.4393 7.5 22.4475 7.5H15.0525C14.0526 7.48714 13.0601 7.67297 12.1326 8.04671C11.2051 8.42046 10.361 8.97468 9.64938 9.67721C8.93775 10.3797 8.37272 11.2166 7.98707 12.1392C7.60142 13.0619 7.40284 14.0519 7.40284 15.0519C7.40284 16.0519 7.60142 17.0419 7.98707 17.9645C8.37272 18.8871 8.93775 19.724 9.64938 20.4265C10.361 21.1291 11.2051 21.6833 12.1326 22.057C13.0601 22.4308 14.0526 22.6166 15.0525 22.6038H16.5V26.25C16.5 26.25 30 24.4275 30 15.0525ZM40.0525 8.75C38.0495 8.75 36.1284 9.54571 34.7121 10.9621C33.2957 12.3784 32.5 14.2995 32.5 16.3025C32.5 25.6775 44.5 27.5 44.5 27.5V23.8538H44.9475C45.9474 23.8666 46.9399 23.6808 47.8674 23.307C48.7949 22.9333 49.639 22.3791 50.3506 21.6765C51.0623 20.974 51.6273 20.1371 52.0129 19.2145C52.3986 18.2919 52.5972 17.3019 52.5972 16.3019C52.5972 15.3019 52.3986 14.3119 52.0129 13.3892C51.6273 12.4666 51.0623 11.6297 50.3506 10.9272C49.639 10.2247 48.7949 9.67046 47.8674 9.29671C46.9399 8.92297 45.9474 8.73714 44.9475 8.75H40.0525Z" fill="#D6E1D7"/>
</g>
<defs>
<clipPath id="clip0_25_68">
<rect width="60" height="60" fill="white"/>
</clipPath>
</defs>
</svg>
