<svg width="60" height="60" viewBox="0 0 60 60" fill="none" xmlns="http://www.w3.org/2000/svg">
<path d="M12.5 27.5V32.5H17.5V27.5H12.5ZM20 27.5V32.5H25V27.5H20ZM27.5 27.5V32.5H32.5V27.5H27.5ZM12.5 20V25H17.5V20H12.5ZM20 20V25H25V20H20ZM27.5 20V25H32.5V20H27.5ZM35 20V25H40V20H35ZM42.5 20V25H47.5V20H42.5ZM45 55L41.5 51.5L45.4375 47.5H35V42.5H45.4375L41.5 38.5L45 35L55 45L45 55ZM30.25 47.5H10C8.625 47.5 7.4475 47.01 6.4675 46.03C5.4875 45.05 4.99834 43.8733 5 42.5V17.5C5 16.125 5.49 14.9475 6.47 13.9675C7.45 12.9875 8.62667 12.4983 10 12.5H50C51.375 12.5 52.5525 12.99 53.5325 13.97C54.5125 14.95 55.0017 16.1267 55 17.5V33.8125C53.9167 32.8542 52.7392 32.0725 51.4675 31.4675C50.1958 30.8625 48.8733 30.4567 47.5 30.25V27.5H42.5V30.25C42.0417 30.3333 41.6142 30.4167 41.2175 30.5C40.8208 30.5833 40.415 30.7083 40 30.875V27.5H35V32.5H36.75C36.2083 32.8333 35.7083 33.2192 35.25 33.6575C34.7917 34.0958 34.3333 34.5433 33.875 35H20V40H30.875C30.5833 40.7917 30.375 41.6042 30.25 42.4375C30.125 43.2708 30.0625 44.125 30.0625 45C30.0625 45.4583 30.0733 45.8858 30.095 46.2825C30.1167 46.6792 30.1683 47.085 30.25 47.5Z" fill="#D6E1D7"/>
</svg>
