<svg width="60" height="60" viewBox="0 0 60 60" fill="none" xmlns="http://www.w3.org/2000/svg">
<path d="M31.5 12C33.4891 12 35.3968 12.7902 36.8033 14.1967C38.2098 15.6032 39 17.5109 39 19.5V40.5C39.0004 42.229 38.4033 43.905 37.31 45.2444C36.2166 46.5837 34.694 47.5042 33 47.85V37.5C33 34.7152 31.8938 32.0445 29.9246 30.0754C27.9555 28.1062 25.2848 27 22.5 27H10.5C8.889 27 7.365 27.36 6 28.011V19.5C6 17.5109 6.79018 15.6032 8.1967 14.1967C9.60322 12.7902 11.5109 12 13.5 12H31.5ZM42 36.246V23.79L50.31 16.851C50.6383 16.5775 51.0377 16.4032 51.4614 16.3484C51.8852 16.2936 52.3158 16.3606 52.7029 16.5416C53.0899 16.7225 53.4175 17.0099 53.6472 17.3702C53.8769 17.7305 53.9993 18.1487 54 18.576V41.58C53.9993 42.0093 53.8758 42.4294 53.6441 42.7908C53.4124 43.1522 53.0821 43.4397 52.6923 43.6195C52.3024 43.7993 51.8693 43.8638 51.444 43.8054C51.0187 43.747 50.619 43.5682 50.292 43.29L42 36.246ZM3 37.5C3 35.5109 3.79018 33.6032 5.1967 32.1967C6.60322 30.7902 8.51088 30 10.5 30H22.5C24.4891 30 26.3968 30.7902 27.8033 32.1967C29.2098 33.6032 30 35.5109 30 37.5V49.5C30 51.4891 29.2098 53.3968 27.8033 54.8033C26.3968 56.2098 24.4891 57 22.5 57H10.5C8.51088 57 6.60322 56.2098 5.1967 54.8033C3.79018 53.3968 3 51.4891 3 49.5V37.5ZM15.06 37.602C14.8655 37.4684 14.6394 37.3879 14.4042 37.3684C14.1691 37.349 13.9329 37.3912 13.719 37.491C13.5434 37.5675 13.3844 37.6775 13.251 37.815C12.9715 38.1014 12.8154 38.4859 12.816 38.886V48.111C12.814 48.3099 12.8514 48.5072 12.9261 48.6915C13.0007 48.8758 13.1112 49.0436 13.251 49.185C13.3889 49.3214 13.5492 49.433 13.725 49.515C14.0294 49.6545 14.3747 49.6759 14.694 49.575C14.8323 49.5295 14.9636 49.4649 15.084 49.383L21.972 44.682C22.1815 44.5438 22.3503 44.3522 22.461 44.127C22.575 43.9001 22.6336 43.6494 22.632 43.3954C22.6304 43.1415 22.5688 42.8915 22.452 42.666C22.3339 42.4436 22.1602 42.2555 21.948 42.12L15.06 37.602Z" fill="#D6E1D7"/>
</svg>
