<svg width="60" height="60" viewBox="0 0 60 60" fill="none" xmlns="http://www.w3.org/2000/svg">
<path d="M30 55C26.5833 55 23.3542 54.3433 20.3125 53.03C17.2708 51.7167 14.6142 49.925 12.3425 47.655C10.0725 45.385 8.28084 42.7292 6.9675 39.6875C5.65417 36.6458 4.99834 33.4167 5 30C5 26.5417 5.65667 23.3017 6.97 20.28C8.28334 17.2583 10.075 14.6133 12.345 12.345C14.615 10.0733 17.27 8.28167 20.31 6.97C23.35 5.65833 26.58 5.00167 30 5C33.4583 5 36.6983 5.65667 39.72 6.97C42.7417 8.28333 45.3867 10.075 47.655 12.345C49.9267 14.615 51.7183 17.2608 53.03 20.2825C54.3417 23.3042 54.9983 26.5433 55 30V33.625C55 36.0833 54.1567 38.1775 52.47 39.9075C50.7833 41.6375 48.71 42.5017 46.25 42.5C44.75 42.5 43.3542 42.1667 42.0625 41.5C40.7708 40.8333 39.7083 39.9583 38.875 38.875C37.75 40 36.4267 40.8858 34.905 41.5325C33.3833 42.1792 31.7483 42.5017 30 42.5C26.5417 42.5 23.5933 41.2808 21.155 38.8425C18.7167 36.4042 17.4983 33.4567 17.5 30C17.5 26.5417 18.7192 23.5933 21.1575 21.155C23.5958 18.7167 26.5433 17.4983 30 17.5C33.4583 17.5 36.4067 18.7192 38.845 21.1575C41.2833 23.5958 42.5017 26.5433 42.5 30V33.625C42.5 34.8333 42.875 35.7808 43.625 36.4675C44.375 37.1542 45.25 37.4983 46.25 37.5C47.25 37.5 48.125 37.1558 48.875 36.4675C49.625 35.7792 50 34.8317 50 33.625V30C50 24.5417 48.0308 19.8433 44.0925 15.905C40.1542 11.9667 35.4567 9.99833 30 10C24.5417 10 19.8433 11.9692 15.905 15.9075C11.9667 19.8458 9.99834 24.5433 10 30C10 35.4583 11.9692 40.1567 15.9075 44.095C19.8458 48.0333 24.5433 50.0017 30 50H42.5V55H30ZM30 37.5C32.0833 37.5 33.8542 36.7708 35.3125 35.3125C36.7708 33.8542 37.5 32.0833 37.5 30C37.5 27.9167 36.7708 26.1458 35.3125 24.6875C33.8542 23.2292 32.0833 22.5 30 22.5C27.9167 22.5 26.1458 23.2292 24.6875 24.6875C23.2292 26.1458 22.5 27.9167 22.5 30C22.5 32.0833 23.2292 33.8542 24.6875 35.3125C26.1458 36.7708 27.9167 37.5 30 37.5Z" fill="#477372"/>
</svg>
