<svg width="336" height="335" viewBox="0 0 336 335" fill="none" xmlns="http://www.w3.org/2000/svg">
<path d="M167.682 334.601C260.005 334.601 334.848 259.787 334.848 167.5C334.848 75.2128 260.005 0.39917 167.682 0.39917C75.3583 0.39917 0.515411 75.2128 0.515411 167.5C0.515411 259.787 75.3583 334.601 167.682 334.601Z" stroke="#D66731" stroke-miterlimit="10"/>
<path d="M167.682 315.188C249.279 315.188 315.427 249.066 315.427 167.5C315.427 85.9342 249.279 19.812 167.682 19.812C86.0839 19.812 19.9359 85.9342 19.9359 167.5C19.9359 249.066 86.0839 315.188 167.682 315.188Z" fill="white"/>
<path d="M56.65 155.9V191H48.1V155.9H56.65ZM75.5461 191.35C72.9794 191.35 70.6794 190.934 68.6461 190.1C66.6128 189.267 64.9794 188.034 63.7461 186.4C62.5461 184.767 61.9128 182.8 61.8461 180.5H70.9461C71.0794 181.8 71.5294 182.8 72.2961 183.5C73.0628 184.167 74.0628 184.5 75.2961 184.5C76.5628 184.5 77.5628 184.217 78.2961 183.65C79.0294 183.05 79.3961 182.234 79.3961 181.2C79.3961 180.334 79.0961 179.617 78.4961 179.05C77.9294 178.484 77.2128 178.017 76.3461 177.65C75.5128 177.284 74.3128 176.867 72.7461 176.4C70.4794 175.7 68.6294 175 67.1961 174.3C65.7628 173.6 64.5294 172.567 63.4961 171.2C62.4628 169.834 61.9461 168.05 61.9461 165.85C61.9461 162.584 63.1294 160.034 65.4961 158.2C67.8628 156.334 70.9461 155.4 74.7461 155.4C78.6128 155.4 81.7294 156.334 84.0961 158.2C86.4628 160.034 87.7294 162.6 87.8961 165.9H78.6461C78.5794 164.767 78.1628 163.884 77.3961 163.25C76.6294 162.584 75.6461 162.25 74.4461 162.25C73.4128 162.25 72.5794 162.534 71.9461 163.1C71.3128 163.634 70.9961 164.417 70.9961 165.45C70.9961 166.584 71.5294 167.467 72.5961 168.1C73.6628 168.734 75.3294 169.417 77.5961 170.15C79.8628 170.917 81.6961 171.65 83.0961 172.35C84.5294 173.05 85.7628 174.067 86.7961 175.4C87.8294 176.734 88.3461 178.45 88.3461 180.55C88.3461 182.55 87.8294 184.367 86.7961 186C85.7961 187.634 84.3294 188.934 82.3961 189.9C80.4628 190.867 78.1794 191.35 75.5461 191.35ZM110.208 191.35C106.908 191.35 103.874 190.584 101.108 189.05C98.3745 187.517 96.1911 185.384 94.5578 182.65C92.9578 179.884 92.1578 176.784 92.1578 173.35C92.1578 169.917 92.9578 166.834 94.5578 164.1C96.1911 161.367 98.3745 159.234 101.108 157.7C103.874 156.167 106.908 155.4 110.208 155.4C113.508 155.4 116.524 156.167 119.258 157.7C122.024 159.234 124.191 161.367 125.758 164.1C127.358 166.834 128.158 169.917 128.158 173.35C128.158 176.784 127.358 179.884 125.758 182.65C124.158 185.384 121.991 187.517 119.258 189.05C116.524 190.584 113.508 191.35 110.208 191.35ZM110.208 183.55C113.008 183.55 115.241 182.617 116.908 180.75C118.608 178.884 119.458 176.417 119.458 173.35C119.458 170.25 118.608 167.784 116.908 165.95C115.241 164.084 113.008 163.15 110.208 163.15C107.374 163.15 105.108 164.067 103.408 165.9C101.741 167.734 100.908 170.217 100.908 173.35C100.908 176.45 101.741 178.934 103.408 180.8C105.108 182.634 107.374 183.55 110.208 183.55ZM142.36 184.15C143.493 183.25 144.01 182.834 143.91 182.9C147.177 180.2 149.743 177.984 151.61 176.25C153.51 174.517 155.11 172.7 156.41 170.8C157.71 168.9 158.36 167.05 158.36 165.25C158.36 163.884 158.043 162.817 157.41 162.05C156.777 161.284 155.827 160.9 154.56 160.9C153.293 160.9 152.293 161.384 151.56 162.35C150.86 163.284 150.51 164.617 150.51 166.35H142.26C142.327 163.517 142.927 161.15 144.06 159.25C145.227 157.35 146.743 155.95 148.61 155.05C150.51 154.15 152.61 153.7 154.91 153.7C158.877 153.7 161.86 154.717 163.86 156.75C165.893 158.784 166.91 161.434 166.91 164.7C166.91 168.267 165.693 171.584 163.26 174.65C160.827 177.684 157.727 180.65 153.96 183.55H167.46V190.5H142.36V184.15ZM194.525 160.9L181.975 191H173.225L185.925 161.85H170.375V154.55H194.525V160.9ZM197.982 172.25C197.982 166.517 199.082 162 201.282 158.7C203.516 155.4 207.099 153.75 212.032 153.75C216.966 153.75 220.532 155.4 222.732 158.7C224.966 162 226.082 166.517 226.082 172.25C226.082 178.05 224.966 182.6 222.732 185.9C220.532 189.2 216.966 190.85 212.032 190.85C207.099 190.85 203.516 189.2 201.282 185.9C199.082 182.6 197.982 178.05 197.982 172.25ZM217.682 172.25C217.682 168.884 217.316 166.3 216.582 164.5C215.849 162.667 214.332 161.75 212.032 161.75C209.732 161.75 208.216 162.667 207.482 164.5C206.749 166.3 206.382 168.884 206.382 172.25C206.382 174.517 206.516 176.4 206.782 177.9C207.049 179.367 207.582 180.567 208.382 181.5C209.216 182.4 210.432 182.85 212.032 182.85C213.632 182.85 214.832 182.4 215.632 181.5C216.466 180.567 217.016 179.367 217.282 177.9C217.549 176.4 217.682 174.517 217.682 172.25ZM230.6 172.25C230.6 166.517 231.7 162 233.9 158.7C236.133 155.4 239.716 153.75 244.65 153.75C249.583 153.75 253.15 155.4 255.35 158.7C257.583 162 258.7 166.517 258.7 172.25C258.7 178.05 257.583 182.6 255.35 185.9C253.15 189.2 249.583 190.85 244.65 190.85C239.716 190.85 236.133 189.2 233.9 185.9C231.7 182.6 230.6 178.05 230.6 172.25ZM250.3 172.25C250.3 168.884 249.933 166.3 249.2 164.5C248.466 162.667 246.95 161.75 244.65 161.75C242.35 161.75 240.833 162.667 240.1 164.5C239.366 166.3 239 168.884 239 172.25C239 174.517 239.133 176.4 239.4 177.9C239.666 179.367 240.2 180.567 241 181.5C241.833 182.4 243.05 182.85 244.65 182.85C246.25 182.85 247.45 182.4 248.25 181.5C249.083 180.567 249.633 179.367 249.9 177.9C250.166 176.4 250.3 174.517 250.3 172.25ZM262.317 162.45V154.5H276.167V191H267.267V162.45H262.317Z" fill="#D66731"/>
</svg>
