<svg width="60" height="60" viewBox="0 0 60 60" fill="none" xmlns="http://www.w3.org/2000/svg">
<path d="M30 5C20.325 5 12.5 12.825 12.5 22.5C12.5 35.625 30 55 30 55C30 55 47.5 35.625 47.5 22.5C47.5 12.825 39.675 5 30 5ZM30 28.75C28.3424 28.75 26.7527 28.0915 25.5806 26.9194C24.4085 25.7473 23.75 24.1576 23.75 22.5C23.75 20.8424 24.4085 19.2527 25.5806 18.0806C26.7527 16.9085 28.3424 16.25 30 16.25C31.6576 16.25 33.2473 16.9085 34.4194 18.0806C35.5915 19.2527 36.25 20.8424 36.25 22.5C36.25 24.1576 35.5915 25.7473 34.4194 26.9194C33.2473 28.0915 31.6576 28.75 30 28.75Z" fill="#D6E1D7"/>
</svg>
