<svg width="387" height="121" viewBox="0 0 387 121" fill="none" xmlns="http://www.w3.org/2000/svg">
<g filter="url(#filter0_d_29_370)">
<path d="M129.476 48V21.6H136.324C138.052 21.6 139.545 21.8987 140.804 22.496C142.063 23.0933 143.033 23.9467 143.716 25.056C144.409 26.1653 144.756 27.4987 144.756 29.056C144.756 30.6027 144.409 31.9627 143.716 33.136C143.033 34.2987 142.063 35.2053 140.804 35.856C139.545 36.496 138.052 36.816 136.324 36.816H131.908V48H129.476ZM131.908 34.768H135.748C137.071 34.768 138.217 34.5387 139.188 34.08C140.169 33.6213 140.927 32.9707 141.46 32.128C141.993 31.2747 142.26 30.272 142.26 29.12C142.26 27.9467 141.993 26.9493 141.46 26.128C140.927 25.296 140.169 24.6667 139.188 24.24C138.217 23.8027 137.071 23.584 135.748 23.584H131.908V34.768ZM151.382 48V21.6H158.23C159.958 21.6 161.451 21.8987 162.71 22.496C163.969 23.0933 164.939 23.952 165.622 25.072C166.315 26.1813 166.662 27.5093 166.662 29.056C166.662 30.4747 166.369 31.728 165.782 32.816C165.206 33.8933 164.385 34.768 163.318 35.44C162.262 36.1013 161.003 36.5067 159.542 36.656L168.326 48H165.238L156.822 36.88H153.814V48H151.382ZM153.814 34.768H157.654C158.998 34.768 160.155 34.5387 161.126 34.08C162.097 33.6213 162.843 32.9707 163.366 32.128C163.899 31.2747 164.166 30.272 164.166 29.12C164.166 27.392 163.59 26.0373 162.438 25.056C161.286 24.0747 159.691 23.584 157.654 23.584H153.814V34.768ZM185.453 48.512C183.608 48.512 181.88 48.16 180.269 47.456C178.658 46.752 177.245 45.776 176.029 44.528C174.813 43.2693 173.858 41.8133 173.165 40.16C172.482 38.496 172.141 36.7147 172.141 34.816C172.141 32.9067 172.482 31.1253 173.165 29.472C173.858 27.8187 174.813 26.368 176.029 25.12C177.245 23.8613 178.658 22.88 180.269 22.176C181.88 21.472 183.608 21.12 185.453 21.12C187.298 21.12 189.026 21.472 190.637 22.176C192.248 22.88 193.661 23.8613 194.877 25.12C196.093 26.368 197.042 27.8187 197.725 29.472C198.418 31.1253 198.765 32.9067 198.765 34.816C198.765 36.7147 198.418 38.496 197.725 40.16C197.042 41.8133 196.093 43.2693 194.877 44.528C193.661 45.776 192.248 46.752 190.637 47.456C189.026 48.16 187.298 48.512 185.453 48.512ZM185.453 46.16C186.957 46.16 188.354 45.872 189.645 45.296C190.936 44.72 192.066 43.9147 193.037 42.88C194.018 41.8453 194.781 40.64 195.325 39.264C195.869 37.888 196.141 36.4053 196.141 34.816C196.141 33.2267 195.869 31.744 195.325 30.368C194.781 28.992 194.018 27.7867 193.037 26.752C192.066 25.7173 190.936 24.912 189.645 24.336C188.354 23.76 186.957 23.472 185.453 23.472C183.949 23.472 182.546 23.76 181.245 24.336C179.954 24.912 178.824 25.7173 177.853 26.752C176.882 27.7867 176.12 28.992 175.565 30.368C175.021 31.744 174.749 33.2267 174.749 34.816C174.749 36.4053 175.021 37.888 175.565 39.264C176.12 40.64 176.882 41.8453 177.853 42.88C178.824 43.9147 179.954 44.72 181.245 45.296C182.546 45.872 183.949 46.16 185.453 46.16ZM205.757 48V21.6H211.709C213.576 21.6 215.314 21.936 216.925 22.608C218.546 23.28 219.96 24.2187 221.165 25.424C222.37 26.6187 223.314 28.016 223.997 29.616C224.68 31.216 225.021 32.9493 225.021 34.816C225.021 36.672 224.685 38.4 224.013 40C223.341 41.6 222.397 43.0027 221.181 44.208C219.976 45.4027 218.562 46.336 216.941 47.008C215.33 47.6693 213.586 48 211.709 48H205.757ZM208.189 45.824H211.485C213.042 45.824 214.482 45.5467 215.805 44.992C217.138 44.4267 218.301 43.648 219.293 42.656C220.296 41.6533 221.074 40.4853 221.629 39.152C222.184 37.808 222.461 36.3573 222.461 34.8C222.461 33.2427 222.184 31.7973 221.629 30.464C221.074 29.1307 220.296 27.9627 219.293 26.96C218.301 25.9573 217.138 25.1787 215.805 24.624C214.472 24.0587 213.032 23.776 211.485 23.776H208.189V45.824ZM240.744 48.512C237.704 48.512 235.416 47.68 233.88 46.016C232.355 44.352 231.592 41.8613 231.592 38.544V21.6H234.024V38.016C234.024 40.736 234.579 42.768 235.688 44.112C236.808 45.4453 238.493 46.112 240.744 46.112C242.984 46.112 244.659 45.4453 245.768 44.112C246.888 42.768 247.448 40.736 247.448 38.016V21.6H249.896V38.544C249.896 41.8613 249.128 44.352 247.592 46.016C246.067 47.68 243.784 48.512 240.744 48.512ZM269.621 48.512C267.648 48.512 265.813 48.1653 264.117 47.472C262.421 46.7787 260.938 45.8133 259.669 44.576C258.41 43.328 257.429 41.872 256.725 40.208C256.021 38.544 255.669 36.7467 255.669 34.816C255.669 32.8853 256.021 31.088 256.725 29.424C257.429 27.76 258.41 26.3093 259.669 25.072C260.938 23.824 262.416 22.8533 264.101 22.16C265.797 21.4667 267.637 21.12 269.621 21.12C271.274 21.12 272.826 21.3653 274.277 21.856C275.728 22.336 277.008 22.9973 278.117 23.84L276.965 25.872C276.026 25.1147 274.938 24.5333 273.701 24.128C272.464 23.7227 271.152 23.52 269.765 23.52C268.09 23.52 266.554 23.808 265.157 24.384C263.77 24.96 262.565 25.76 261.541 26.784C260.517 27.808 259.722 29.008 259.157 30.384C258.602 31.76 258.325 33.2373 258.325 34.816C258.325 36.3947 258.602 37.872 259.157 39.248C259.722 40.624 260.517 41.824 261.541 42.848C262.565 43.872 263.77 44.672 265.157 45.248C266.554 45.824 268.09 46.112 269.765 46.112C271.152 46.112 272.464 45.9093 273.701 45.504C274.938 45.0987 276.026 44.5173 276.965 43.76L278.117 45.792C277.018 46.624 275.744 47.2853 274.293 47.776C272.853 48.2667 271.296 48.512 269.621 48.512ZM289.356 48V23.808H281.308V21.6H299.868V23.808H291.788V48H289.356ZM305.945 48V21.6H308.377V48H305.945ZM322.737 48L311.665 21.6H314.417L323.697 44.336L332.961 21.6H335.713L324.641 48H322.737ZM341.726 48V21.6H355.022V23.744H344.158V33.696H354.638V35.84H344.158V45.856H355.022V48H341.726Z" fill="white"/>
</g>
<g filter="url(#filter1_dd_29_370)">
<path d="M128.851 94V67.6H135.699C137.427 67.6 138.92 67.8987 140.179 68.496C141.438 69.0933 142.408 69.9467 143.091 71.056C143.784 72.1653 144.131 73.4987 144.131 75.056C144.131 76.6027 143.784 77.9627 143.091 79.136C142.408 80.2987 141.438 81.2053 140.179 81.856C138.92 82.496 137.427 82.816 135.699 82.816H131.283V94H128.851ZM131.283 80.768H135.123C136.446 80.768 137.592 80.5387 138.563 80.08C139.544 79.6213 140.302 78.9707 140.835 78.128C141.368 77.2747 141.635 76.272 141.635 75.12C141.635 73.9467 141.368 72.9493 140.835 72.128C140.302 71.296 139.544 70.6667 138.563 70.24C137.592 69.8027 136.446 69.584 135.123 69.584H131.283V80.768ZM150.757 94V67.6H153.189V91.856H164.245V94H150.757ZM168.212 94L178.612 67.6H180.868L191.252 94H188.628L185.412 85.584H174.068L170.82 94H168.212ZM174.884 83.44H184.58L179.732 70.8L174.884 83.44ZM200.733 94V82.56L191.661 67.6H194.589L201.949 79.968L209.309 67.6H212.253L203.165 82.56V94H200.733ZM218.101 94V67.6H220.533V79.696H234.949V67.6H237.365V94H234.949V81.84H220.533V94H218.101ZM257.672 94.512C255.827 94.512 254.099 94.16 252.488 93.456C250.877 92.752 249.464 91.776 248.248 90.528C247.032 89.2693 246.077 87.8133 245.384 86.16C244.701 84.496 244.36 82.7147 244.36 80.816C244.36 78.9067 244.701 77.1253 245.384 75.472C246.077 73.8187 247.032 72.368 248.248 71.12C249.464 69.8613 250.877 68.88 252.488 68.176C254.099 67.472 255.827 67.12 257.672 67.12C259.517 67.12 261.245 67.472 262.856 68.176C264.467 68.88 265.88 69.8613 267.096 71.12C268.312 72.368 269.261 73.8187 269.944 75.472C270.637 77.1253 270.984 78.9067 270.984 80.816C270.984 82.7147 270.637 84.496 269.944 86.16C269.261 87.8133 268.312 89.2693 267.096 90.528C265.88 91.776 264.467 92.752 262.856 93.456C261.245 94.16 259.517 94.512 257.672 94.512ZM257.672 92.16C259.176 92.16 260.573 91.872 261.864 91.296C263.155 90.72 264.285 89.9147 265.256 88.88C266.237 87.8453 267 86.64 267.544 85.264C268.088 83.888 268.36 82.4053 268.36 80.816C268.36 79.2267 268.088 77.744 267.544 76.368C267 74.992 266.237 73.7867 265.256 72.752C264.285 71.7173 263.155 70.912 261.864 70.336C260.573 69.76 259.176 69.472 257.672 69.472C256.168 69.472 254.765 69.76 253.464 70.336C252.173 70.912 251.043 71.7173 250.072 72.752C249.101 73.7867 248.339 74.992 247.784 76.368C247.24 77.744 246.968 79.2267 246.968 80.816C246.968 82.4053 247.24 83.888 247.784 85.264C248.339 86.64 249.101 87.8453 250.072 88.88C251.043 89.9147 252.173 90.72 253.464 91.296C254.765 91.872 256.168 92.16 257.672 92.16ZM286.744 94.512C283.704 94.512 281.416 93.68 279.88 92.016C278.355 90.352 277.592 87.8613 277.592 84.544V67.6H280.024V84.016C280.024 86.736 280.579 88.768 281.688 90.112C282.808 91.4453 284.493 92.112 286.744 92.112C288.984 92.112 290.659 91.4453 291.768 90.112C292.888 88.768 293.448 86.736 293.448 84.016V67.6H295.896V84.544C295.896 87.8613 295.128 90.352 293.592 92.016C292.067 93.68 289.784 94.512 286.744 94.512ZM310.068 94.512C308.703 94.512 307.503 94.3093 306.468 93.904C305.433 93.488 304.553 92.992 303.828 92.416C303.113 91.8293 302.537 91.2587 302.1 90.704C301.673 90.1493 301.375 89.7333 301.204 89.456L302.596 87.664C302.788 87.9627 303.076 88.368 303.46 88.88C303.855 89.3813 304.356 89.8933 304.964 90.416C305.572 90.928 306.303 91.3653 307.156 91.728C308.009 92.08 308.996 92.256 310.116 92.256C311.183 92.256 312.153 92.064 313.028 91.68C313.913 91.296 314.623 90.7253 315.156 89.968C315.689 89.2107 315.956 88.272 315.956 87.152C315.956 86.2133 315.769 85.4187 315.396 84.768C315.033 84.1067 314.527 83.5467 313.876 83.088C313.225 82.6293 312.479 82.224 311.636 81.872C310.804 81.5093 309.929 81.1573 309.012 80.816C308.372 80.5707 307.7 80.2827 306.996 79.952C306.303 79.6107 305.652 79.1893 305.044 78.688C304.436 78.176 303.94 77.5573 303.556 76.832C303.183 76.1067 302.996 75.232 302.996 74.208C302.996 73.248 303.177 72.3413 303.54 71.488C303.903 70.6347 304.409 69.8827 305.06 69.232C305.711 68.5707 306.489 68.0533 307.396 67.68C308.303 67.3067 309.305 67.12 310.404 67.12C311.46 67.12 312.431 67.296 313.316 67.648C314.201 67.9893 314.975 68.4267 315.636 68.96C316.308 69.4827 316.825 70.0267 317.188 70.592L315.94 72.272C315.641 71.7813 315.225 71.312 314.692 70.864C314.159 70.416 313.529 70.0533 312.804 69.776C312.089 69.488 311.295 69.344 310.42 69.344C309.332 69.344 308.404 69.5787 307.636 70.048C306.879 70.5173 306.303 71.1253 305.908 71.872C305.513 72.608 305.316 73.3867 305.316 74.208C305.316 74.9547 305.471 75.5893 305.78 76.112C306.089 76.6347 306.5 77.0773 307.012 77.44C307.524 77.792 308.084 78.096 308.692 78.352C309.311 78.608 309.929 78.848 310.548 79.072C311.583 79.456 312.575 79.8667 313.524 80.304C314.484 80.7307 315.337 81.2427 316.084 81.84C316.831 82.4267 317.423 83.1467 317.86 84C318.297 84.8427 318.516 85.8667 318.516 87.072C318.516 88.6507 318.143 89.9947 317.396 91.104C316.649 92.2133 315.641 93.0613 314.372 93.648C313.103 94.224 311.668 94.512 310.068 94.512ZM325.351 94V67.6H338.647V69.744H327.783V79.696H338.263V81.84H327.783V91.856H338.647V94H325.351Z" fill="#DA903C"/>
</g>
<g filter="url(#filter2_d_29_370)">
<path d="M101 48.0337C101 21.5071 79.2856 0 52.4967 0C25.7078 0 4 21.5071 4 48.0337C4 59.3307 7.94385 69.7055 14.5347 77.9131C21.0922 86.595 30.6825 92.9648 41.7957 95.5338C42.8931 95.817 43.9971 96.0608 45.1078 96.2255C45.9325 96.3506 46.7571 96.4428 47.5885 96.5153C49.1381 96.68 50.7143 96.7722 52.3105 96.7854C53.062 96.8117 53.8135 96.8446 54.565 96.871C55.5227 96.9105 55.7888 97.2135 55.7821 98.1291C55.7422 102.635 55.7621 107.14 55.7688 111.646V112.101C55.8353 112.641 56.0747 113.043 56.3009 112.996L56.4073 112.931C60.1183 110.546 63.9358 108.3 67.5139 105.731C74.1446 100.975 80.0304 95.4086 85.1714 89.085C88.3039 85.2315 91.0772 81.1342 93.2919 76.7011C94.8681 73.5524 95.0077 73.1572 95.0077 73.1572C96.2315 69.745 97.4419 66.379 97.6946 65.6807C97.9473 64.9825 99.2509 60.2265 100.135 56.709C100.135 56.709 100.987 53.2902 100.987 48.0205L101 48.0337Z" fill="#477372"/>
</g>
<g filter="url(#filter3_d_29_370)">
<path d="M49.2869 59.2926V78.4419C48.5847 78.6436 46.4066 78.9731 45.0998 78.9866C43.7604 79.0067 42.4861 79.0403 41.1012 78.7781C38.2209 78.2335 36.9856 77.6553 35.4902 76.5862C34.3069 75.739 33.026 73.7891 33 72.1216V23.9524C33 22.6278 33.3381 21.6058 34.0078 20.8729C34.6775 20.1467 35.6527 19.5819 36.9401 19.1852C37.9608 18.7885 39.1312 18.4591 40.4445 18.1901C41.7579 17.9279 43.1037 17.6925 44.4756 17.4976C45.854 17.2958 47.2259 17.1681 48.6042 17.1009C49.9826 17.0336 51.2765 17 52.4923 17C61.1982 17 67.7975 18.9028 72.2772 22.7085C76.7569 26.5142 79 31.7318 79 38.3547C79 41.5351 78.4408 44.433 77.316 47.0486C76.1977 49.6641 75.3135 51.3787 72.7193 53.7925C70.6582 55.7088 68.142 57.0267 64.7351 58.0285C61.6663 58.9295 58.2529 59.2993 54.4103 59.2993H49.2804L49.2869 59.2926ZM53.7992 45.8181C56.5234 45.8181 58.6625 45.3071 60.2229 43.9489C61.5883 42.7655 62.427 40.8694 62.427 38.2875C62.427 33.1707 59.5077 30.7501 53.8902 30.7501C52.8889 30.7501 52.3167 30.7569 51.2375 30.7703C50.4312 30.777 50.0021 30.7905 49.2479 30.8039V45.8988L53.8057 45.8249L53.7992 45.8181Z" fill="white"/>
</g>
<defs>
<filter id="filter0_d_29_370" x="125.476" y="21.12" width="233.546" height="35.392" filterUnits="userSpaceOnUse" color-interpolation-filters="sRGB">
<feFlood flood-opacity="0" result="BackgroundImageFix"/>
<feColorMatrix in="SourceAlpha" type="matrix" values="0 0 0 0 0 0 0 0 0 0 0 0 0 0 0 0 0 0 127 0" result="hardAlpha"/>
<feOffset dy="4"/>
<feGaussianBlur stdDeviation="2"/>
<feComposite in2="hardAlpha" operator="out"/>
<feColorMatrix type="matrix" values="0 0 0 0 0 0 0 0 0 0 0 0 0 0 0 0 0 0 0.25 0"/>
<feBlend mode="normal" in2="BackgroundImageFix" result="effect1_dropShadow_29_370"/>
<feBlend mode="normal" in="SourceGraphic" in2="effect1_dropShadow_29_370" result="shape"/>
</filter>
<filter id="filter1_dd_29_370" x="124.851" y="67.12" width="217.796" height="35.392" filterUnits="userSpaceOnUse" color-interpolation-filters="sRGB">
<feFlood flood-opacity="0" result="BackgroundImageFix"/>
<feColorMatrix in="SourceAlpha" type="matrix" values="0 0 0 0 0 0 0 0 0 0 0 0 0 0 0 0 0 0 127 0" result="hardAlpha"/>
<feOffset dy="4"/>
<feGaussianBlur stdDeviation="2"/>
<feComposite in2="hardAlpha" operator="out"/>
<feColorMatrix type="matrix" values="0 0 0 0 0 0 0 0 0 0 0 0 0 0 0 0 0 0 0.25 0"/>
<feBlend mode="normal" in2="BackgroundImageFix" result="effect1_dropShadow_29_370"/>
<feColorMatrix in="SourceAlpha" type="matrix" values="0 0 0 0 0 0 0 0 0 0 0 0 0 0 0 0 0 0 127 0" result="hardAlpha"/>
<feOffset dy="4"/>
<feGaussianBlur stdDeviation="2"/>
<feComposite in2="hardAlpha" operator="out"/>
<feColorMatrix type="matrix" values="0 0 0 0 0 0 0 0 0 0 0 0 0 0 0 0 0 0 0.25 0"/>
<feBlend mode="normal" in2="effect1_dropShadow_29_370" result="effect2_dropShadow_29_370"/>
<feBlend mode="normal" in="SourceGraphic" in2="effect2_dropShadow_29_370" result="shape"/>
</filter>
<filter id="filter2_d_29_370" x="0" y="0" width="105" height="121" filterUnits="userSpaceOnUse" color-interpolation-filters="sRGB">
<feFlood flood-opacity="0" result="BackgroundImageFix"/>
<feColorMatrix in="SourceAlpha" type="matrix" values="0 0 0 0 0 0 0 0 0 0 0 0 0 0 0 0 0 0 127 0" result="hardAlpha"/>
<feOffset dy="4"/>
<feGaussianBlur stdDeviation="2"/>
<feComposite in2="hardAlpha" operator="out"/>
<feColorMatrix type="matrix" values="0 0 0 0 0 0 0 0 0 0 0 0 0 0 0 0 0 0 0.25 0"/>
<feBlend mode="normal" in2="BackgroundImageFix" result="effect1_dropShadow_29_370"/>
<feBlend mode="normal" in="SourceGraphic" in2="effect1_dropShadow_29_370" result="shape"/>
</filter>
<filter id="filter3_d_29_370" x="29" y="17" width="54" height="70" filterUnits="userSpaceOnUse" color-interpolation-filters="sRGB">
<feFlood flood-opacity="0" result="BackgroundImageFix"/>
<feColorMatrix in="SourceAlpha" type="matrix" values="0 0 0 0 0 0 0 0 0 0 0 0 0 0 0 0 0 0 127 0" result="hardAlpha"/>
<feOffset dy="4"/>
<feGaussianBlur stdDeviation="2"/>
<feComposite in2="hardAlpha" operator="out"/>
<feColorMatrix type="matrix" values="0 0 0 0 0 0 0 0 0 0 0 0 0 0 0 0 0 0 0.25 0"/>
<feBlend mode="normal" in2="BackgroundImageFix" result="effect1_dropShadow_29_370"/>
<feBlend mode="normal" in="SourceGraphic" in2="effect1_dropShadow_29_370" result="shape"/>
</filter>
</defs>
</svg>
