<svg width="55" height="55" viewBox="0 0 55 55" fill="none" xmlns="http://www.w3.org/2000/svg">
<path d="M20.625 11.4583C23.0562 11.4583 25.3877 12.424 27.1068 14.1431C28.8259 15.8622 29.7917 18.1938 29.7917 20.6249C29.7917 23.0561 28.8259 25.3876 27.1068 27.1067C25.3877 28.8258 23.0562 29.7916 20.625 29.7916C18.1939 29.7916 15.8623 28.8258 14.1432 27.1067C12.4241 25.3876 11.4584 23.0561 11.4584 20.6249C11.4584 18.1938 12.4241 15.8622 14.1432 14.1431C15.8623 12.424 18.1939 11.4583 20.625 11.4583ZM20.625 34.3749C26.7438 34.3749 38.9584 37.4458 38.9584 43.5416V48.1249H2.29169V43.5416C2.29169 37.4458 14.5063 34.3749 20.625 34.3749ZM38.4084 12.2833C43.0375 17.3249 43.0375 24.3145 38.4084 28.9437L34.5584 25.0708C36.4834 22.3666 36.4834 18.8603 34.5584 16.1562L38.4084 12.2833ZM45.9938 4.58325C55 13.8645 54.9313 27.752 45.9938 36.6666L42.2584 32.9312C48.6063 25.6437 48.6063 15.2395 42.2584 8.31867L45.9938 4.58325Z" fill="#D6E1D7"/>
</svg>
