<svg xmlns="http://www.w3.org/2000/svg" id="Layer_1" viewBox="0 0 540.39 171.56"><defs><style>.cls-1{letter-spacing:.1em;}.cls-2,.cls-3{fill:#fff;}.cls-4{fill:#477372;}.cls-5{letter-spacing:.18em;}.cls-6{letter-spacing:.24em;}.cls-7{letter-spacing:.24em;}.cls-3,.cls-8{font-family:AvenirNext-Bold, 'Avenir Next';font-size:46.09px;}.cls-8{fill:#da903c;}.cls-9{letter-spacing:.13em;}.cls-10{letter-spacing:.2em;}.cls-11{letter-spacing:.2em;}.cls-12{letter-spacing:.16em;}.cls-13{letter-spacing:.12em;}.cls-14{letter-spacing:.14em;}</style></defs><text class="cls-3" transform="translate(172.79 71.43)"><tspan class="cls-12" x="0" y="0">P</tspan><tspan class="cls-13" x="36.88" y="0">RO</tspan><tspan class="cls-1" x="117.72" y="0">DU</tspan><tspan class="cls-9" x="196.64" y="0">C</tspan><tspan class="cls-12" x="234.9" y="0">T</tspan><tspan class="cls-5" x="269.05" y="0">I</tspan><tspan class="cls-14" x="292.01" y="0">V</tspan><tspan class="cls-10" x="329.9" y="0">E</tspan></text><text class="cls-8" transform="translate(172.79 125.74)"><tspan class="cls-11" x="0" y="0">P</tspan><tspan class="cls-6" x="38.72" y="0">L</tspan><tspan class="cls-14" x="74.03" y="0">A</tspan><tspan class="cls-6" x="114.08" y="0">Y</tspan><tspan class="cls-11" x="155.98" y="0">HO</tspan><tspan class="cls-7" x="248.86" y="0">U</tspan><tspan class="cls-11" x="293.94" y="0">SE</tspan></text><path class="cls-4" d="M145.85,72.92C145.85,32.65,113.2,0,72.92,0S0,32.65,0,72.92c0,17.15,5.93,32.9,15.84,45.36,9.86,13.18,24.28,22.85,40.99,26.75,1.65,.43,3.31,.8,4.98,1.05,1.24,.19,2.48,.33,3.73,.44,2.33,.25,4.7,.39,7.1,.41,1.13,.04,2.26,.09,3.39,.13,1.44,.06,1.84,.52,1.83,1.91-.06,6.84-.03,13.68-.02,20.52v.69c.1,.82,.46,1.43,.8,1.36l.16-.1c5.58-3.62,11.32-7.03,16.7-10.93,9.97-7.22,18.82-15.67,26.55-25.27,4.71-5.85,8.88-12.07,12.21-18.8,2.37-4.78,2.58-5.38,2.58-5.38,1.84-5.18,3.66-10.29,4.04-11.35s2.34-8.28,3.67-13.62c0,0,1.28-5.19,1.28-13.19Z"></path><path class="cls-2" d="M67.77,90.29v28.48c-1.08,.3-4.43,.79-6.44,.81-2.06,.03-4.02,.08-6.15-.31-4.43-.81-6.33-1.67-8.63-3.26-1.82-1.26-3.79-4.16-3.83-6.64V37.73c0-1.97,.52-3.49,1.55-4.58,1.03-1.08,2.53-1.92,4.51-2.51,1.57-.59,3.37-1.08,5.39-1.48,2.02-.39,4.09-.74,6.2-1.03,2.12-.3,4.23-.49,6.35-.59,2.12-.1,4.11-.15,5.98-.15,13.39,0,23.54,2.83,30.43,8.49,6.89,5.66,10.34,13.42,10.34,23.27,0,4.73-.86,9.04-2.59,12.93-1.72,3.89-3.08,6.44-7.07,10.03-3.17,2.85-7.04,4.81-12.28,6.3-4.72,1.34-9.97,1.89-15.88,1.89h-7.89Zm6.94-20.04c4.19,0,7.48-.76,9.88-2.78,2.1-1.76,3.39-4.58,3.39-8.42,0-7.61-4.49-11.21-13.13-11.21-1.54,0-2.42,.01-4.08,.03-1.24,.01-1.9,.03-3.06,.05v22.45l7.01-.11Z"></path></svg>