<svg xmlns="http://www.w3.org/2000/svg" xmlns:xlink="http://www.w3.org/1999/xlink" id="Layer_1" viewBox="0 0 909.16 419.68"><defs><style>.cls-1,.cls-2,.cls-3{fill:none;}.cls-4{font-size:78px;}.cls-4,.cls-5{fill:#16394b;font-family:Baskerville, Baskerville;}.cls-6{clip-path:url(#clippath);}.cls-7{fill:#fff;}.cls-5{font-size:74px;}.cls-8{clip-path:url(#clippath-1);}.cls-9{clip-path:url(#clippath-3);}.cls-2{stroke:#fff;stroke-linecap:round;stroke-linejoin:round;stroke-width:1.92px;}.cls-3{stroke:#16394b;stroke-miterlimit:10;}.cls-10{opacity:.2;}.cls-11{opacity:.45;}.cls-12{opacity:.9;}.cls-13{fill:url(#radial-gradient);}</style><clipPath id="clippath"><rect class="cls-1" x="-177.61" y="-1549.66" width="2869.84" height="1361.5"></rect></clipPath><radialGradient id="radial-gradient" cx="8009.73" cy="-1893.05" fx="8009.73" fy="-1893.05" r="3066.83" gradientTransform="translate(-7459.99 -1127.07) scale(1 -1)" gradientUnits="userSpaceOnUse"><stop offset="0" stop-color="#fff"></stop><stop offset=".06" stop-color="#f6f8f9"></stop><stop offset=".31" stop-color="#d8e3e6"></stop><stop offset=".55" stop-color="#c3d3d8"></stop><stop offset=".78" stop-color="#b6cad0"></stop><stop offset="1" stop-color="#b2c7ce"></stop></radialGradient><clipPath id="clippath-1"><rect class="cls-1" x="-185.9" y="-1427.37" width="2873.6" height="1915.73" transform="translate(2501.79 -939) rotate(180)"></rect></clipPath><clipPath id="clippath-3"><rect class="cls-1" x="-185.9" y="-1427.37" width="2873.6" height="1915.73" transform="translate(2501.79 -939) rotate(180)"></rect></clipPath></defs><g class="cls-12"><g class="cls-6"><g><rect class="cls-13" x="-185.9" y="-1521.4" width="2873.6" height="1915.73" transform="translate(2501.79 -1127.07) rotate(180)"></rect><g class="cls-8"><g class="cls-10"><g><polygon class="cls-2" points="-118.46 260.06 118.85 -61.66 -290.24 -35.22 -118.46 260.06"></polygon><polygon class="cls-2" points="261.6 579.36 -118.46 260.06 -186.34 883.69 261.6 579.36"></polygon><polygon class="cls-2" points="332.66 312.88 118.85 -61.66 -118.46 260.06 332.66 312.88"></polygon><polygon class="cls-2" points="261.6 579.36 332.66 312.88 -118.46 260.06 261.6 579.36"></polygon><polygon class="cls-2" points="467.01 -129.34 118.85 -61.66 332.66 312.88 467.01 -129.34"></polygon></g><path class="cls-7" d="M329.33,322.29c5.61,1.99,11.77-.95,13.76-6.56,1.99-5.61-.95-11.77-6.56-13.76-5.61-1.99-11.77,.95-13.76,6.56-1.99,5.61,.95,11.77,6.56,13.76Z"></path></g></g><g class="cls-9"><g class="cls-11"><g><polygon class="cls-2" points="385.82 111.6 606.77 -148.93 -271.91 -205.13 385.82 111.6"></polygon><path class="cls-2" d="M-224.66,255.92c3.83-2.55,610.48-144.32,610.48-144.32L-271.91-205.13l47.25,461.05Z"></path><polygon class="cls-2" points="385.82 111.6 768.33 227.83 606.77 -148.93 385.82 111.6"></polygon><polygon class="cls-2" points="211.81 576.49 385.82 111.6 -224.66 255.92 211.81 576.49"></polygon><polygon class="cls-2" points="486.72 554.46 768.33 227.83 385.82 111.6 486.72 554.46"></polygon><polygon class="cls-2" points="211.81 576.49 486.72 554.46 385.82 111.6 211.81 576.49"></polygon><polygon class="cls-2" points="948.41 533.39 768.33 227.83 486.72 554.46 948.41 533.39"></polygon><polygon class="cls-2" points="768.33 227.83 1030.79 111.6 606.77 -148.93 768.33 227.83"></polygon><polygon class="cls-2" points="899.56 -161.71 1030.79 111.6 606.77 -148.93 899.56 -161.71"></polygon><polygon class="cls-2" points="1030.79 111.6 1030.79 278.91 768.33 227.83 1030.79 111.6"></polygon><path class="cls-2" d="M1106.46,411.74s-73.39-132.38-75.67-132.82c-2.28-.44-262.46-51.09-262.46-51.09l338.13,183.91Z"></path><polygon class="cls-2" points="948.41 533.39 1106.46 411.74 768.33 227.83 948.41 533.39"></polygon><polygon class="cls-2" points="1030.79 111.6 1225.23 -127.54 899.56 -161.71 1030.79 111.6"></polygon></g><g><circle class="cls-7" cx="769.69" cy="229.5" r="10.78"></circle><circle class="cls-7" cx="385.82" cy="113.84" r="10.78"></circle></g></g><g class="cls-10"><g><polygon class="cls-2" points="547.67 -609.88 879.04 368.03 1262.53 -666.97 547.67 -609.88"></polygon><polygon class="cls-2" points="879.04 368.03 523.97 270.28 547.67 -609.88 879.04 368.03"></polygon><polygon class="cls-2" points="523.97 270.28 800.83 776.37 879.04 368.03 523.97 270.28"></polygon><polygon class="cls-2" points="255.45 59.11 523.97 270.28 547.67 -609.88 255.45 59.11"></polygon><polygon class="cls-2" points="1262.53 -666.97 1443.41 -303.03 879.04 368.03 1262.53 -666.97"></polygon><path class="cls-2" d="M88.68-545.63c2.69,3.73,166.77,604.73,166.77,604.73l292.23-668.99-458.99,64.25Z"></path><polygon class="cls-2" points="255.45 59.11 153.43 445.65 523.97 270.28 255.45 59.11"></polygon><polygon class="cls-2" points="-215.55 -97.62 255.45 59.11 88.68 -545.63 -215.55 -97.62"></polygon><polygon class="cls-2" points="-183.38 176.29 153.43 445.65 255.45 59.11 -183.38 176.29"></polygon><polygon class="cls-2" points="-215.55 -97.62 -183.38 176.29 255.45 59.11 -215.55 -97.62"></polygon><polygon class="cls-2" points="-145.27 636.89 153.43 445.65 -183.38 176.29 -145.27 636.89"></polygon><polygon class="cls-2" points="1247.28 225.66 879.04 368.03 1443.41 -303.03 1247.28 225.66"></polygon><polygon class="cls-2" points="1067.66 647.65 1247.28 225.66 879.04 368.03 1067.66 647.65"></polygon><polygon class="cls-2" points="547.54 562.4 800.83 776.37 523.97 270.28 547.54 562.4"></polygon><polygon class="cls-2" points="153.43 445.65 279.27 703.63 523.97 270.28 153.43 445.65"></polygon><polygon class="cls-2" points="547.54 562.4 279.27 703.63 523.97 270.28 547.54 562.4"></polygon><polygon class="cls-2" points="1067.66 647.65 800.83 776.37 879.04 368.03 1067.66 647.65"></polygon><polygon class="cls-2" points="879.04 368.03 882.98 -147.8 1262.53 -666.97 879.04 368.03"></polygon></g><g><path class="cls-7" d="M878.51,353.67c-6.52,.24-11.61,5.72-11.37,12.24,.24,6.52,5.72,11.61,12.24,11.37,6.52-.24,11.61-5.72,11.37-12.24-.24-6.52-5.72-11.61-12.24-11.37Z"></path><path class="cls-7" d="M523.57,259.51c-5.95,.22-10.59,5.22-10.37,11.17,.22,5.95,5.22,10.59,11.17,10.37,5.95-.22,10.59-5.22,10.37-11.17-.22-5.95-5.22-10.59-11.17-10.37Z"></path><path class="cls-7" d="M252.81,48.42c-5.95,.22-10.59,5.22-10.37,11.17,.22,5.95,5.22,10.59,11.17,10.37,5.95-.22,10.59-5.22,10.37-11.17-.22-5.95-5.22-10.59-11.17-10.37Z"></path></g></g></g></g></g></g><g><circle class="cls-3" cx="212.49" cy="209.84" r="209.34"></circle><circle class="cls-7" cx="212.49" cy="209.84" r="185.02"></circle><text class="cls-5" transform="translate(47.16 230.93)"><tspan x="0" y="0">ISO 27001</tspan></text></g><g><circle class="cls-3" cx="695.87" cy="209.84" r="209.34"></circle><circle class="cls-7" cx="695.87" cy="209.84" r="185.02"></circle><text class="cls-4" transform="translate(595.13 233.61)"><tspan x="0" y="0">SOC2</tspan></text></g></svg>