<svg width="60" height="60" viewBox="0 0 60 60" fill="none" xmlns="http://www.w3.org/2000/svg">
<path d="M12.5 40C12.5 39.337 12.7634 38.7011 13.2322 38.2322C13.7011 37.7634 14.337 37.5 15 37.5H35C35.663 37.5 36.2989 37.7634 36.7678 38.2322C37.2366 38.7011 37.5 39.337 37.5 40C37.5 40.663 37.2366 41.2989 36.7678 41.7678C36.2989 42.2366 35.663 42.5 35 42.5H15C14.337 42.5 13.7011 42.2366 13.2322 41.7678C12.7634 41.2989 12.5 40.663 12.5 40ZM45 27.5C45.663 27.5 46.2989 27.7634 46.7678 28.2322C47.2366 28.7011 47.5 29.337 47.5 30C47.5 30.663 47.2366 31.2989 46.7678 31.7678C46.2989 32.2366 45.663 32.5 45 32.5H25C24.337 32.5 23.7011 32.2366 23.2322 31.7678C22.7634 31.2989 22.5 30.663 22.5 30C22.5 29.337 22.7634 28.7011 23.2322 28.2322C23.7011 27.7634 24.337 27.5 25 27.5H45ZM40 40C40 39.337 40.2634 38.7011 40.7322 38.2322C41.2011 37.7634 41.837 37.5 42.5 37.5H45C45.663 37.5 46.2989 37.7634 46.7678 38.2322C47.2366 38.7011 47.5 39.337 47.5 40C47.5 40.663 47.2366 41.2989 46.7678 41.7678C46.2989 42.2366 45.663 42.5 45 42.5H42.5C41.837 42.5 41.2011 42.2366 40.7322 41.7678C40.2634 41.2989 40 40.663 40 40ZM17.5 27.5C18.163 27.5 18.7989 27.7634 19.2678 28.2322C19.7366 28.7011 20 29.337 20 30C20 30.663 19.7366 31.2989 19.2678 31.7678C18.7989 32.2366 18.163 32.5 17.5 32.5H15C14.337 32.5 13.7011 32.2366 13.2322 31.7678C12.7634 31.2989 12.5 30.663 12.5 30C12.5 29.337 12.7634 28.7011 13.2322 28.2322C13.7011 27.7634 14.337 27.5 15 27.5H17.5Z" fill="#D6E1D7"/>
<path fill-rule="evenodd" clip-rule="evenodd" d="M10 7.5C8.01088 7.5 6.10322 8.29018 4.6967 9.6967C3.29018 11.1032 2.5 13.0109 2.5 15V45C2.5 46.9891 3.29018 48.8968 4.6967 50.3033C6.10322 51.7098 8.01088 52.5 10 52.5H50C51.9891 52.5 53.8968 51.7098 55.3033 50.3033C56.7098 48.8968 57.5 46.9891 57.5 45V15C57.5 13.0109 56.7098 11.1032 55.3033 9.6967C53.8968 8.29018 51.9891 7.5 50 7.5H10ZM50 12.5H10C9.33696 12.5 8.70107 12.7634 8.23223 13.2322C7.76339 13.7011 7.5 14.337 7.5 15V45C7.5 45.663 7.76339 46.2989 8.23223 46.7678C8.70107 47.2366 9.33696 47.5 10 47.5H50C50.663 47.5 51.2989 47.2366 51.7678 46.7678C52.2366 46.2989 52.5 45.663 52.5 45V15C52.5 14.337 52.2366 13.7011 51.7678 13.2322C51.2989 12.7634 50.663 12.5 50 12.5Z" fill="#D6E1D7"/>
</svg>
