<svg width="336" height="335" viewBox="0 0 336 335" fill="none" xmlns="http://www.w3.org/2000/svg">
<path d="M167.68 334.601C260.003 334.601 334.846 259.787 334.846 167.5C334.846 75.2128 260.003 0.39917 167.68 0.39917C75.3562 0.39917 0.513306 75.2128 0.513306 167.5C0.513306 259.787 75.3562 334.601 167.68 334.601Z" stroke="#D66731" stroke-miterlimit="10"/>
<path d="M167.68 315.188C249.277 315.188 315.425 249.066 315.425 167.5C315.425 85.9342 249.277 19.812 167.68 19.812C86.0818 19.812 19.9338 85.9342 19.9338 167.5C19.9338 249.066 86.0818 315.188 167.68 315.188Z" fill="white"/>
<path d="M115.313 192.35C112.746 192.35 110.446 191.934 108.413 191.1C106.379 190.267 104.746 189.034 103.513 187.4C102.313 185.767 101.679 183.8 101.613 181.5H110.713C110.846 182.8 111.296 183.8 112.063 184.5C112.829 185.167 113.829 185.5 115.063 185.5C116.329 185.5 117.329 185.217 118.063 184.65C118.796 184.05 119.163 183.234 119.163 182.2C119.163 181.334 118.863 180.617 118.263 180.05C117.696 179.484 116.979 179.017 116.113 178.65C115.279 178.284 114.079 177.867 112.513 177.4C110.246 176.7 108.396 176 106.963 175.3C105.529 174.6 104.296 173.567 103.263 172.2C102.229 170.834 101.713 169.05 101.713 166.85C101.713 163.584 102.896 161.034 105.263 159.2C107.629 157.334 110.713 156.4 114.513 156.4C118.379 156.4 121.496 157.334 123.863 159.2C126.229 161.034 127.496 163.6 127.663 166.9H118.413C118.346 165.767 117.929 164.884 117.163 164.25C116.396 163.584 115.413 163.25 114.213 163.25C113.179 163.25 112.346 163.534 111.713 164.1C111.079 164.634 110.763 165.417 110.763 166.45C110.763 167.584 111.296 168.467 112.363 169.1C113.429 169.734 115.096 170.417 117.363 171.15C119.629 171.917 121.463 172.65 122.863 173.35C124.296 174.05 125.529 175.067 126.563 176.4C127.596 177.734 128.113 179.45 128.113 181.55C128.113 183.55 127.596 185.367 126.563 187C125.563 188.634 124.096 189.934 122.163 190.9C120.229 191.867 117.946 192.35 115.313 192.35ZM149.975 192.35C146.675 192.35 143.641 191.584 140.875 190.05C138.141 188.517 135.958 186.384 134.325 183.65C132.725 180.884 131.925 177.784 131.925 174.35C131.925 170.917 132.725 167.834 134.325 165.1C135.958 162.367 138.141 160.234 140.875 158.7C143.641 157.167 146.675 156.4 149.975 156.4C153.275 156.4 156.291 157.167 159.025 158.7C161.791 160.234 163.958 162.367 165.525 165.1C167.125 167.834 167.925 170.917 167.925 174.35C167.925 177.784 167.125 180.884 165.525 183.65C163.925 186.384 161.758 188.517 159.025 190.05C156.291 191.584 153.275 192.35 149.975 192.35ZM149.975 184.55C152.775 184.55 155.008 183.617 156.675 181.75C158.375 179.884 159.225 177.417 159.225 174.35C159.225 171.25 158.375 168.784 156.675 166.95C155.008 165.084 152.775 164.15 149.975 164.15C147.141 164.15 144.875 165.067 143.175 166.9C141.508 168.734 140.675 171.217 140.675 174.35C140.675 177.45 141.508 179.934 143.175 181.8C144.875 183.634 147.141 184.55 149.975 184.55ZM171.231 174.4C171.231 170.934 171.981 167.85 173.481 165.15C174.981 162.417 177.065 160.3 179.731 158.8C182.431 157.267 185.481 156.5 188.881 156.5C193.048 156.5 196.615 157.6 199.581 159.8C202.548 162 204.531 165 205.531 168.8H196.131C195.431 167.334 194.431 166.217 193.131 165.45C191.865 164.684 190.415 164.3 188.781 164.3C186.148 164.3 184.015 165.217 182.381 167.05C180.748 168.884 179.931 171.334 179.931 174.4C179.931 177.467 180.748 179.917 182.381 181.75C184.015 183.584 186.148 184.5 188.781 184.5C190.415 184.5 191.865 184.117 193.131 183.35C194.431 182.584 195.431 181.467 196.131 180H205.531C204.531 183.8 202.548 186.8 199.581 189C196.615 191.167 193.048 192.25 188.881 192.25C185.481 192.25 182.431 191.5 179.731 190C177.065 188.467 174.981 186.35 173.481 183.65C171.981 180.95 171.231 177.867 171.231 174.4ZM209.617 185.15C210.75 184.25 211.267 183.834 211.167 183.9C214.434 181.2 217 178.984 218.867 177.25C220.767 175.517 222.367 173.7 223.667 171.8C224.967 169.9 225.617 168.05 225.617 166.25C225.617 164.884 225.3 163.817 224.667 163.05C224.034 162.284 223.084 161.9 221.817 161.9C220.55 161.9 219.55 162.384 218.817 163.35C218.117 164.284 217.767 165.617 217.767 167.35H209.517C209.584 164.517 210.184 162.15 211.317 160.25C212.484 158.35 214 156.95 215.867 156.05C217.767 155.15 219.867 154.7 222.167 154.7C226.134 154.7 229.117 155.717 231.117 157.75C233.15 159.784 234.167 162.434 234.167 165.7C234.167 169.267 232.95 172.584 230.517 175.65C228.084 178.684 224.984 181.65 221.217 184.55H234.717V191.5H209.617V185.15Z" fill="#D66731"/>
</svg>
