<svg width="60" height="60" viewBox="0 0 60 60" fill="none" xmlns="http://www.w3.org/2000/svg">
<path d="M37.5 30.443L41.0297 37.5H33.9703L35.4609 34.5234L37.5 30.443ZM52.5 11.25V48.75C52.5 49.7446 52.1049 50.6984 51.4016 51.4016C50.6984 52.1049 49.7446 52.5 48.75 52.5H11.25C10.2554 52.5 9.30161 52.1049 8.59835 51.4016C7.89509 50.6984 7.5 49.7446 7.5 48.75V11.25C7.5 10.2554 7.89509 9.30161 8.59835 8.59835C9.30161 7.89509 10.2554 7.5 11.25 7.5H48.75C49.7446 7.5 50.6984 7.89509 51.4016 8.59835C52.1049 9.30161 52.5 10.2554 52.5 11.25ZM48.5531 44.1609L39.1781 25.4109C39.0226 25.0989 38.7832 24.8364 38.4868 24.653C38.1903 24.4695 37.8486 24.3723 37.5 24.3723C37.1514 24.3723 36.8097 24.4695 36.5132 24.653C36.2168 24.8364 35.9774 25.0989 35.8219 25.4109L32.7328 31.5938C30.7457 31.2046 28.8613 30.4064 27.1992 29.25C29.7898 26.3171 31.3928 22.6439 31.7813 18.75H35.625C36.1223 18.75 36.5992 18.5525 36.9508 18.2008C37.3025 17.8492 37.5 17.3723 37.5 16.875C37.5 16.3777 37.3025 15.9008 36.9508 15.5492C36.5992 15.1975 36.1223 15 35.625 15H26.25V13.125C26.25 12.6277 26.0525 12.1508 25.7008 11.7992C25.3492 11.4475 24.8723 11.25 24.375 11.25C23.8777 11.25 23.4008 11.4475 23.0492 11.7992C22.6975 12.1508 22.5 12.6277 22.5 13.125V15H13.125C12.6277 15 12.1508 15.1975 11.7992 15.5492C11.4475 15.9008 11.25 16.3777 11.25 16.875C11.25 17.3723 11.4475 17.8492 11.7992 18.2008C12.1508 18.5525 12.6277 18.75 13.125 18.75H28.0031C27.6312 21.7084 26.3823 24.4879 24.4172 26.7305C23.5847 25.7586 22.8761 24.6871 22.3078 23.5406C22.0775 23.1112 21.6891 22.7883 21.2249 22.6403C20.7606 22.4923 20.257 22.5309 19.8206 22.7478C19.3843 22.9648 19.0496 23.343 18.8874 23.8025C18.7252 24.262 18.7482 24.7666 18.9516 25.2094C19.6692 26.6565 20.5669 28.007 21.6234 29.2289C19.1261 30.9556 16.1611 31.8788 13.125 31.875C12.6277 31.875 12.1508 32.0725 11.7992 32.4242C11.4475 32.7758 11.25 33.2527 11.25 33.75C11.25 34.2473 11.4475 34.7242 11.7992 35.0758C12.1508 35.4275 12.6277 35.625 13.125 35.625C17.1955 35.6293 21.1556 34.3016 24.4008 31.8445C26.3644 33.3454 28.6108 34.4344 31.0055 35.0461L26.4469 44.1609C26.2243 44.606 26.1877 45.1212 26.3451 45.5933C26.5024 46.0654 26.8409 46.4556 27.2859 46.6781C27.731 46.9007 28.2462 46.9373 28.7183 46.7799C29.1904 46.6226 29.5806 46.2841 29.8031 45.8391L32.0953 41.25H42.9047L45.1969 45.8391C45.3071 46.0594 45.4596 46.256 45.6457 46.4174C45.8318 46.5788 46.0479 46.702 46.2817 46.7799C46.5154 46.8578 46.7622 46.8889 47.008 46.8715C47.2538 46.854 47.4937 46.7883 47.7141 46.6781C47.9344 46.5679 48.131 46.4154 48.2924 46.2293C48.4538 46.0432 48.577 45.8271 48.6549 45.5933C48.7328 45.3596 48.7639 45.1128 48.7465 44.867C48.729 44.6212 48.6633 44.3813 48.5531 44.1609Z" fill="#D6E1D7"/>
</svg>
